<?xml version="1.0" encoding="utf-8"?>
<!-- Generator: Adobe Illustrator 15.1.0, SVG Export Plug-In . SVG Version: 6.00 Build 0)  -->
<!DOCTYPE svg PUBLIC "-//W3C//DTD SVG 1.1//EN" "http://www.w3.org/Graphics/SVG/1.1/DTD/svg11.dtd">
<svg version="1.1" xmlns="http://www.w3.org/2000/svg" xmlns:xlink="http://www.w3.org/1999/xlink" x="0px" y="0px"
	 width="300px" height="106.91px" viewBox="0 0 154.75 56.75" enable-background="new 0 0 154.75 56.75" xml:space="preserve">
<g id="Layer_1">
	<g display="none">
		<g display="inline">
			<path fill-rule="evenodd" clip-rule="evenodd" fill="#FDF11E" d="M36.521,1.067C46.217,0.3,58.345,3.198,65.975,8.704
				c6.828,4.926,14.65,14.173,10.909,26.727c-0.4,1.342-2.009,3.845-3.272,5.454c-5.285,6.73-13.572,10.3-24,12.545
				c-7.7,1.658-12.071,1.762-20.181,0c-10.099-2.193-17.813-5.597-23.454-13.091c-1.297-1.724-2.881-3.597-3.272-4.908
				c-2.833-9.505,1.165-16.846,4.909-21.272C12.89,7.919,24.721,1.095,35.43,1.067C35.79,1.066,36.163,1.096,36.521,1.067z
				 M29.976,12.522c-4.583,3.106-10.646,4.26-18,3.272c-1.502,3.475-4.082,6.053-3.818,9.272c0.425,5.184,9.336,9.413,10.909,13.09
				c1.812,0.441,1.845,4.713,3.818,3.272c-2.193-7.988-10.541-9.822-13.09-17.454c1.079-1.466,1.535-3.556,2.727-4.909
				c2.11,0.474,1.94-1.332,3.272-1.636c5.892,2.002,10.951-1.359,14.727-3.272c1.397-1.148,1.375-3.715,2.727-4.909
				c1.258,2.742,2.75,5.25,3.818,8.182c-1.952,0.548-3.375,2.884-4.364,4.909c-2.015,4.124-2.463,8.828-2.182,14.727
				c0.966,1.762,2.035,3.419,3.272,4.909c2.505,0.709,5.326,0.666,7.091-0.546c6.37-4.374,3.119-20.218-1.091-24.544
				c3.309-1.675,5.762-3.51,9.272-3.272c6.164,0.417,7.897,6.38,9.817,11.454c2.525,0.929,4.891,2.019,8.182,2.182
				c-0.718,3.991,2.297,4.249,3.273,6.545c-2.547,5.488-8.12,8.445-13.637,10.363c-2.866,0.997-6.736,0.682-7.636,3.272
				c4.304,0.369,8.742-1.94,12.545-3.818c4.063-2.006,8.124-4.151,9.818-8.181c1.116-1.793,0.294-5.524,0.545-8.182
				c-3.525-2.11-9.685-1.587-12.545-4.363c-0.263-3.555-2.076-5.56-3.272-8.182c-2.211-0.86-3.888-2.471-6.546-2.727
				c-4.453-0.429-7.964,2.221-11.454,3.272c-1.58-2.966-2.987-6.104-4.364-9.272c-0.545,0-1.091,0-1.636,0
				C31.32,8.048,30.579,10.216,29.976,12.522z M25.067,21.249c1.922,0.442,2.531,2.196,4.909,2.182
				C30.111,20.303,25.796,17.391,25.067,21.249z M53.43,27.249c1.961-1.746,2.23-6.551,0-8.182
				C45.43,17.259,46.03,28.817,53.43,27.249z"/>
			<path fill-rule="evenodd" clip-rule="evenodd" fill="#393607" d="M32.158,5.977c0.545,0,1.091,0,1.636,0
				c1.377,3.168,2.784,6.307,4.364,9.272c3.49-1.052,7-3.702,11.454-3.272c2.658,0.256,4.335,1.867,6.546,2.727
				c1.196,2.622,3.01,4.626,3.272,8.182c2.86,2.776,9.02,2.253,12.545,4.363c-0.251,2.658,0.571,6.389-0.545,8.182
				c-1.694,4.029-5.755,6.175-9.818,8.181c-3.803,1.878-8.241,4.188-12.545,3.818c0.899-2.591,4.77-2.275,7.636-3.272
				c5.517-1.918,11.09-4.875,13.637-10.363c-0.977-2.296-3.991-2.554-3.273-6.545c-3.291-0.163-5.656-1.252-8.182-2.182
				c-1.92-5.074-3.653-11.037-9.817-11.454c-3.511-0.238-5.964,1.597-9.272,3.272c4.21,4.327,7.461,20.17,1.091,24.544
				c-1.765,1.212-4.585,1.255-7.091,0.546c-1.237-1.49-2.307-3.147-3.272-4.909c-0.282-5.899,0.167-10.603,2.182-14.727
				c0.989-2.025,2.412-4.361,4.364-4.909c-1.068-2.932-2.56-5.44-3.818-8.182c-1.352,1.194-1.33,3.761-2.727,4.909
				c-3.776,1.913-8.835,5.274-14.727,3.272c-1.332,0.304-1.162,2.11-3.272,1.636c-1.192,1.353-1.648,3.443-2.727,4.909
				c2.55,7.631,10.897,9.465,13.09,17.454c-1.973,1.44-2.006-2.831-3.818-3.272c-1.573-3.678-10.484-7.906-10.909-13.09
				c-0.264-3.22,2.316-5.797,3.818-9.272c7.354,0.987,13.416-0.167,18-3.272C30.579,10.216,31.32,8.048,32.158,5.977z
				 M32.158,29.976c-0.598,5.433,0.696,10.876,4.909,10.909c2.522,0.02,4.825-2.981,5.455-6c1.21-5.799-1.329-12.513-3.273-15.818
				c-0.697-0.03-0.755-0.699-1.636-0.545C35.62,21.021,32.718,24.889,32.158,29.976z"/>
			<path fill-rule="evenodd" clip-rule="evenodd" fill="#FDF11E" d="M37.612,18.521c0.881-0.153,0.939,0.516,1.636,0.545
				c1.944,3.305,4.483,10.019,3.273,15.818c-0.63,3.019-2.932,6.02-5.455,6c-4.213-0.033-5.507-5.477-4.909-10.909
				C32.718,24.889,35.62,21.021,37.612,18.521z"/>
			<path fill-rule="evenodd" clip-rule="evenodd" fill="#393607" d="M29.976,23.431c-2.378,0.015-2.987-1.74-4.909-2.182
				C25.796,17.391,30.111,20.303,29.976,23.431z"/>
			<path fill-rule="evenodd" clip-rule="evenodd" fill="#393607" d="M53.43,19.067c2.23,1.631,1.961,6.436,0,8.182
				C46.03,28.817,45.43,17.259,53.43,19.067z M51.794,23.431c1.859,0.411,2.127-2.083,0.545-2.182
				C52.167,21.986,51.562,22.291,51.794,23.431z"/>
			<path fill-rule="evenodd" clip-rule="evenodd" fill="#FDF11E" d="M52.339,21.249c1.582,0.098,1.314,2.592-0.545,2.182
				C51.562,22.291,52.167,21.986,52.339,21.249z"/>
		</g>
	</g>
	<ellipse fill="#FDF11E" cx="39.628" cy="28.625" rx="37.878" ry="26.75"/>
	<g id="Layer_2" display="none">
	</g>
	<g id="Layer_3">
		<path fill="none" stroke="#231F20" stroke-width="2" stroke-linecap="round" stroke-miterlimit="10" d="M39.184,16.064
			c0,0,9.566-7.439,16.316-1.314c1.268,1.833,2.361,3.801,3.075,5.917c0.401,1.191,0.091,3.301,1.186,4.116
			c0.793,0.591,2.966,0.761,3.951,1.014c2.423,0.622,4.857,1.237,7.288,1.827c0,0,2.125,2.75,0,7.75s-13,10-22.25,11.5"/>
		<path fill="none" stroke="#231F20" stroke-width="2" stroke-miterlimit="10" d="M12.875,17.25c5.648-0.844,14.152,1.77,17.25-4.64
			c2.928-7.502,0.799-10.058,9.059,3.454c0,0,10.441,17.421-0.684,23.561c-9.125,3.75-9.847-18.888,0.125-23.114"/>
		<path fill="none" stroke="#231F20" stroke-width="2" stroke-linecap="round" stroke-miterlimit="10" d="M12.875,17.25
			c-0.5,1-3.625,3.125-4,8.625L15.5,32.75c0,0,6.75,6.625,6.625,8.5"/>
	</g>
	<g id="Layer_10" display="none">
		<ellipse display="inline" fill="#FDF11E" cx="112.625" cy="27.168" rx="42.125" ry="27.5"/>
	</g>
	<g id="Layer_4">
		<path fill="#231F20" d="M29.209,22.543c-0.089-0.37-0.367-0.985-0.625-1.25c-0.148-0.236-0.342-0.506-0.542-0.708
			c-0.566-0.573-1.14-1.037-1.751-0.733c-0.253,0.041-0.518,0.145-0.793,0.342c-0.28,0.2-0.366,0.684,0,0.863
			c1.155,0.568,3.563,2.217,3.638,2.192c0.04-0.003,0.075,0.007,0.115,0.001C29.577,23.206,29.358,22.82,29.209,22.543z"/>
		<path fill="#231F20" d="M71.889,32.287c-0.153-0.358-0.344-0.688-0.552-1.005c0.313-0.025,0.605-0.363,0.427-0.745
			c-0.584-1.247-1.108-3.091-2.354-3.009c-0.049-0.081-0.094-0.159-0.146-0.241c-0.202-0.322-0.708-0.306-0.866,0.041
			c-0.092-0.187-0.262-0.271-0.438-0.267c0-0.048-0.003-0.1-0.002-0.146c0.02-0.645-0.98-0.644-1,0
			c-0.06,1.967,1.087,5.076,3.134,5.917c0.045,0.473,1.213,0.224,1.366,0.208C71.861,33,72.045,32.651,71.889,32.287z"/>
		<path fill="#231F20" d="M15.357,17.133c0.095-0.599-0.761-0.863-0.934-0.345c-0.729,0.177-1.408,0.526-2.05,0.905
			c-0.296,0.175-0.288,0.5-0.133,0.716c-0.162-0.003-0.325-0.014-0.489-0.034c-0.463-0.058-0.582,0.451-0.374,0.766
			c-0.508,0.087-0.468,0.939,0.124,0.984c1.381,0.105,2.534-0.315,3.307-1.498c0.106-0.163,0.095-0.317,0.028-0.446
			C15.098,17.921,15.287,17.576,15.357,17.133z"/>
		<ellipse fill="#FDF11E" cx="52.796" cy="21.857" rx="0.829" ry="1.409"/>
		<g>
			<path fill="#FFFFFF" d="M83.516,28.145c1.293,0.666,3.48,1.736,5.351,1.479c0.807-0.111,1.38-0.375,1.706-0.71
				c0.404-0.558,0.168-1.078-0.289-1.332c-1.725-0.948-6.546-1.919-7.002-4.573c-0.606-3.528,3.337-7.157,5.73-8.489
				c1.293-0.705,2.639-1.102,3.722-0.46c0.821,0.495,1.485,1.273,1.811,1.967c0.465,0.991-0.053,2.089-0.392,2.69
				c-0.594,1.006-1.203,2.434-1.495,3.133c-0.104,0.252-0.255,0.405-0.62,0.165c-0.631-0.414-1.113-1.165-0.717-2.459
				c0.392-1.319,2.184-3.755,1.382-4.304c-1.134-0.767-7.536,4.149-7.127,7.39c0.201,1.687,4.12,2.544,5.909,3.353
				c1.213,0.546,1.272,1.75,0.231,3.238c-1.422,2.015-6.346,3.194-11.155-0.626c-0.375-0.291-0.29-0.487-0.044-0.601
				C81.421,27.616,82.641,27.685,83.516,28.145z"/>
			<path fill="#FFFFFF" d="M103.086,18.249c0.201-0.37,0.423-0.453,0.663-0.249c0.512,0.404,0.932,1.481,0.463,2.864
				c-0.434,1.245-1.541,3.376-1.997,4.836c-0.472,1.542-0.31,2.653,0.659,2.467c1.172-0.214,2.453-2.184,3.155-4.101
				c0.104-0.252,0.301-0.304,0.456-0.089c0.155,0.216,0.266,0.86,0.016,1.633c-0.506,1.52-2.074,3.187-3.671,3.328
				c-1.568,0.136-2.516-0.577-2.723-1.787c-0.74,1.183-1.871,2.314-3.253,2.504c-2.677,0.369-3.785-2.828-1.933-6.274
				c1.81-3.361,3.884-4.833,5.323-5.032c1.237-0.17,1.959,0.601,2.074,1.614C102.587,19.294,102.84,18.706,103.086,18.249z
				 M100.964,19.623c-0.934,0.05-2.747,2.013-3.937,4.524c-1.145,2.426-1.129,4.745-0.002,4.615
				c1.184-0.136,2.397-1.991,3.477-4.459C101.828,21.219,101.812,19.585,100.964,19.623z"/>
			<path fill="#FFFFFF" d="M113.217,16.696c0.973-0.002,2.082,1.138,1.592,2.576c-0.409,1.217-1.492,3.317-1.924,4.749
				c-0.491,1.597-0.111,2.785,0.916,2.59c1.172-0.213,2.289-2.109,3.073-4.063c0.104-0.25,0.306-0.278,0.485-0.092
				c0.25,0.254,0.294,0.856,0.02,1.658c-0.529,1.55-2.116,3.114-3.786,3.344c-2.446,0.337-3.297-1.182-2.847-3.537
				c0.517-2.656,2.58-5.736,2.025-5.872c-0.305-0.063-1.851,0.889-3.383,2.945c-1.414,1.882-2.256,4.53-3.077,7.123
				c-0.075,0.248-0.23,0.375-0.529,0.178c-0.664-0.436-0.983-1.262-0.743-2.614c0.297-1.701,1.897-5.589,3.299-8.234
				c0.152-0.31,0.387-0.316,0.604-0.083c0.542,0.585,0.663,1.464,0.507,2.437C110.531,18.384,112.246,16.697,113.217,16.696z"/>
			<path fill="#FFFFFF" d="M125.291,25.08c1.172-0.214,2.43-2.154,3.132-4.071c0.104-0.251,0.305-0.279,0.456-0.089
				c0.154,0.216,0.298,0.882,0.044,1.63c-0.534,1.524-2.084,3.134-3.68,3.275c-1.567,0.137-2.478-0.529-2.686-1.74
				c-0.744,1.157-1.876,2.289-3.228,2.475c-2.678,0.369-3.758-2.832-1.929-6.247c1.761-3.302,3.863-4.779,5.303-4.977
				c1.181-0.163,1.894,0.557,2.028,1.514c1.098-2.867,2.684-6.673,3.494-8.129c0.226-0.4,0.489-0.411,0.69-0.095
				c0.549,0.795,0.653,1.915-0.224,4.014c-1.002,2.405-3.034,7.037-4.004,9.965C124.17,24.206,124.322,25.266,125.291,25.08z
				 M119.479,21.082c-1.174,2.429-1.105,4.715,0.021,4.584c1.155-0.132,2.449-1.866,3.398-4.397
				c1.178-3.089,1.331-4.772,0.492-4.683C122.494,16.685,120.672,18.597,119.479,21.082z"/>
			<path fill="#FFFFFF" d="M134.482,25.08c-1.02,3.674-2.351,8.103-4.597,9.256c-0.517,0.256-1.063,0.331-1.734-0.315
				c-0.708-0.693-1.438-1.516-1.124-3.115c0.466-2.438,2.646-4.32,5.322-5.718c0.187-0.632,0.363-1.315,0.574-1.978
				c-0.751,0.947-1.73,1.768-2.895,1.849c-2.099,0.13-2.479-1.743-2.109-3.533c0.351-1.735,1.322-4.48,2.795-7.057
				c0.182-0.315,0.474-0.328,0.72-0.099c0.832,0.729,0.845,1.835,0.041,3.501c-0.779,1.637-1.23,2.781-1.569,4.067
				c-0.358,1.341-0.146,2.234,0.524,2.196c1.136-0.079,2.291-1.925,3.374-4.369c0.91-2.077,1.749-4.565,2.531-6.018
				c0.201-0.371,0.394-0.45,0.688-0.28c0.482,0.408,0.903,1.484,0.38,2.9c-0.605,1.614-1.83,4.947-2.61,7.612
				c2.06-1.391,3.505-3.094,4.413-4.668c0.113-0.202,0.367-0.262,0.469-0.013c0.098,0.224,0.113,0.828-0.261,1.565
				C138.566,22.618,136.721,23.875,134.482,25.08z M128.576,33.066c0.459,0.438,2.337-2.695,3.471-6.728
				C128.637,28.786,127.948,32.493,128.576,33.066z"/>
			<path fill="#FFFFFF" d="M138.937,12.257c-0.178-0.002-0.266-0.174-0.195-0.448c0.445-1.354,1.649-4.289,2.46-5.402
				c0.312-0.413,0.561-0.341,0.725-0.074c0.285,0.462,0.127,1.09-0.109,1.598c-0.498,1.044-1.559,2.931-2.194,3.862
				C139.363,12.171,139.142,12.255,138.937,12.257z"/>
			<path fill="#FFFFFF" d="M142.472,14.144c-0.029-1.025,0.175-1.555,0.695-2.126c0.544-0.604,1.188-0.797,1.487-0.602
				c0.332,0.218,0.237,0.521-0.035,1.166c-0.089,0.171-0.148,0.337-0.232,0.534c0.206,2.397,1.098,4.332,1.316,6.122
				c0.115,1.012,0.101,2.122-0.83,2.882c1.817-0.909,2.761-2.622,3.241-4.111c0.095-0.304,0.396-0.267,0.548-0.076
				c0.154,0.215,0.24,0.889-0.111,1.755c-0.789,1.929-2.578,3.177-4.607,3.536c-1.66,0.282-3.339,0.117-4.592-1.345
				c-0.89-1.065-1.096-2.776-0.241-3.634c0.301-0.304,0.55-0.232,0.649,0.176c0.063,0.201,0.099,0.407,0.163,0.609
				C140.855,17.425,141.862,15.572,142.472,14.144z M140.421,20.385c0.688,1.435,1.705,2.376,2.61,1.988
				c1.262-0.543,0.135-4.528-0.334-6.573C142.097,17.28,141.275,18.843,140.421,20.385z"/>
		</g>
		<g>
			<path fill="#FFFFFF" d="M84.652,28.143c1.293,0.667,3.48,1.737,5.351,1.479c0.806-0.111,1.38-0.375,1.705-0.709
				c0.405-0.558,0.168-1.079-0.288-1.332c-1.724-0.949-6.546-1.92-7.002-4.574c-0.605-3.528,3.337-7.157,5.73-8.489
				c1.293-0.705,2.639-1.102,3.722-0.46c0.821,0.494,1.485,1.272,1.811,1.967c0.465,0.989-0.053,2.089-0.393,2.69
				c-0.593,1.004-1.202,2.434-1.494,3.133c-0.104,0.252-0.255,0.405-0.62,0.166c-0.631-0.415-1.113-1.166-0.717-2.46
				c0.393-1.318,2.184-3.754,1.383-4.303c-1.135-0.767-7.537,4.149-7.128,7.39c0.201,1.687,4.12,2.543,5.908,3.353
				c1.213,0.544,1.273,1.75,0.232,3.238c-1.421,2.016-6.345,3.194-11.156-0.625c-0.374-0.292-0.289-0.488-0.044-0.602
				C82.559,27.615,83.777,27.685,84.652,28.143z"/>
			<path fill="#FFFFFF" d="M104.222,18.249c0.202-0.37,0.424-0.453,0.665-0.25c0.511,0.404,0.932,1.481,0.462,2.863
				c-0.434,1.247-1.541,3.377-1.997,4.837c-0.472,1.542-0.311,2.654,0.659,2.468c1.171-0.214,2.453-2.184,3.155-4.101
				c0.104-0.252,0.302-0.305,0.456-0.09c0.155,0.217,0.266,0.86,0.016,1.633c-0.505,1.521-2.075,3.187-3.671,3.328
				c-1.567,0.136-2.516-0.577-2.724-1.788c-0.739,1.183-1.87,2.315-3.252,2.505c-2.676,0.369-3.786-2.828-1.932-6.273
				c1.809-3.361,3.884-4.833,5.321-5.032c1.238-0.17,1.96,0.6,2.075,1.612C103.725,19.294,103.977,18.705,104.222,18.249z
				 M102.102,19.623c-0.935,0.049-2.748,2.013-3.938,4.524c-1.145,2.425-1.129,4.744-0.002,4.615
				c1.185-0.136,2.397-1.992,3.477-4.46C102.965,21.218,102.949,19.584,102.102,19.623z"/>
			<path fill="#FFFFFF" d="M114.354,16.695c0.971-0.002,2.08,1.137,1.591,2.576c-0.409,1.217-1.492,3.317-1.924,4.748
				c-0.492,1.598-0.111,2.785,0.916,2.591c1.172-0.214,2.29-2.109,3.073-4.063c0.104-0.251,0.306-0.279,0.485-0.093
				c0.25,0.256,0.294,0.856,0.02,1.659c-0.529,1.549-2.117,3.113-3.786,3.343c-2.446,0.337-3.297-1.181-2.847-3.538
				c0.516-2.655,2.58-5.734,2.025-5.87c-0.305-0.063-1.851,0.889-3.383,2.945c-1.414,1.882-2.256,4.53-3.077,7.123
				c-0.075,0.248-0.23,0.375-0.529,0.178c-0.664-0.436-0.983-1.262-0.744-2.614c0.297-1.703,1.898-5.589,3.3-8.234
				c0.152-0.311,0.387-0.316,0.604-0.083c0.542,0.584,0.664,1.464,0.507,2.436C111.669,18.383,113.383,16.697,114.354,16.695z"/>
			<path fill="#FFFFFF" d="M126.428,25.08c1.172-0.214,2.43-2.154,3.131-4.071c0.104-0.251,0.307-0.279,0.457-0.089
				c0.154,0.216,0.299,0.882,0.044,1.629c-0.534,1.523-2.084,3.134-3.68,3.275c-1.568,0.137-2.478-0.528-2.686-1.739
				c-0.744,1.157-1.876,2.289-3.229,2.475c-2.677,0.369-3.757-2.833-1.928-6.247c1.761-3.302,3.864-4.779,5.303-4.978
				c1.181-0.162,1.894,0.557,2.028,1.514c1.098-2.867,2.684-6.672,3.493-8.129c0.227-0.4,0.49-0.41,0.691-0.095
				c0.549,0.795,0.653,1.914-0.225,4.012c-1,2.406-3.033,7.037-4.003,9.965C125.306,24.206,125.459,25.265,126.428,25.08z
				 M120.615,21.08c-1.174,2.43-1.105,4.715,0.021,4.586c1.155-0.132,2.449-1.867,3.398-4.397c1.178-3.09,1.331-4.772,0.492-4.684
				C123.631,16.684,121.809,18.595,120.615,21.08z"/>
			<path fill="#FFFFFF" d="M135.618,25.078c-1.019,3.675-2.349,8.103-4.596,9.258c-0.516,0.255-1.063,0.33-1.734-0.315
				c-0.708-0.693-1.438-1.516-1.124-3.115c0.465-2.437,2.646-4.32,5.323-5.717c0.185-0.632,0.363-1.316,0.573-1.978
				c-0.751,0.946-1.729,1.767-2.895,1.849c-2.099,0.13-2.479-1.743-2.109-3.533c0.35-1.737,1.322-4.48,2.795-7.058
				c0.182-0.314,0.474-0.328,0.72-0.099c0.833,0.73,0.845,1.836,0.042,3.502c-0.779,1.637-1.231,2.781-1.57,4.067
				c-0.358,1.341-0.146,2.234,0.524,2.195c1.136-0.078,2.291-1.924,3.374-4.368c0.91-2.077,1.75-4.565,2.531-6.018
				c0.201-0.371,0.394-0.451,0.688-0.281c0.482,0.408,0.903,1.485,0.381,2.901c-0.607,1.614-1.831,4.946-2.611,7.612
				c2.06-1.392,3.505-3.094,4.413-4.669c0.112-0.201,0.367-0.262,0.469-0.012c0.098,0.224,0.113,0.828-0.261,1.565
				C139.703,22.617,137.857,23.873,135.618,25.078z M129.714,33.065c0.458,0.438,2.336-2.695,3.47-6.728
				C129.774,28.785,129.085,32.492,129.714,33.065z"/>
			<path fill="#FFFFFF" d="M140.073,12.255c-0.178-0.001-0.266-0.174-0.194-0.448c0.444-1.353,1.648-4.288,2.459-5.402
				c0.312-0.412,0.561-0.341,0.725-0.073c0.285,0.461,0.128,1.09-0.109,1.598c-0.498,1.044-1.559,2.931-2.194,3.862
				C140.5,12.171,140.278,12.254,140.073,12.255z"/>
			<path fill="#FFFFFF" d="M143.608,14.142c-0.029-1.023,0.175-1.554,0.695-2.126c0.544-0.603,1.188-0.796,1.487-0.601
				c0.332,0.218,0.237,0.521-0.035,1.165c-0.089,0.171-0.148,0.336-0.232,0.534c0.205,2.397,1.098,4.331,1.316,6.121
				c0.115,1.012,0.1,2.123-0.83,2.883c1.817-0.91,2.761-2.622,3.241-4.112c0.096-0.303,0.396-0.266,0.547-0.075
				c0.155,0.215,0.241,0.889-0.11,1.756c-0.789,1.928-2.577,3.177-4.608,3.535c-1.659,0.283-3.338,0.117-4.591-1.345
				c-0.891-1.064-1.096-2.776-0.241-3.632c0.302-0.305,0.549-0.234,0.649,0.174c0.063,0.202,0.099,0.408,0.163,0.61
				C141.992,17.424,143,15.571,143.608,14.142z M141.558,20.384c0.688,1.435,1.704,2.376,2.61,1.988
				c1.262-0.544,0.136-4.528-0.334-6.573C143.233,17.278,142.412,18.842,141.558,20.384z"/>
		</g>
		<g>
			<path stroke="#231F20" stroke-width="0.5" stroke-miterlimit="10" d="M86.27,28.141c1.294,0.667,3.48,1.737,5.352,1.479
				c0.806-0.111,1.379-0.376,1.705-0.709c0.404-0.558,0.168-1.079-0.288-1.332c-1.725-0.949-6.546-1.92-7.002-4.574
				c-0.606-3.528,3.337-7.157,5.729-8.489c1.294-0.706,2.64-1.102,3.723-0.46c0.821,0.494,1.485,1.271,1.811,1.966
				c0.465,0.99-0.054,2.09-0.393,2.691c-0.594,1.004-1.202,2.434-1.494,3.133c-0.104,0.251-0.255,0.404-0.62,0.166
				c-0.631-0.415-1.113-1.166-0.717-2.46c0.392-1.318,2.184-3.754,1.382-4.303c-1.134-0.767-7.536,4.149-7.127,7.39
				c0.201,1.686,4.119,2.543,5.908,3.353c1.213,0.545,1.272,1.749,0.232,3.238c-1.422,2.016-6.346,3.194-11.156-0.626
				C82.94,28.31,83.025,28.114,83.271,28C84.176,27.613,85.396,27.683,86.27,28.141z"/>
			<path stroke="#231F20" stroke-width="0.5" stroke-miterlimit="10" d="M105.84,18.247c0.202-0.37,0.423-0.454,0.664-0.25
				c0.512,0.404,0.932,1.48,0.463,2.863c-0.434,1.247-1.541,3.377-1.998,4.837c-0.471,1.542-0.31,2.654,0.66,2.468
				c1.171-0.215,2.453-2.184,3.155-4.102c0.104-0.251,0.301-0.304,0.456-0.089c0.155,0.216,0.266,0.86,0.016,1.633
				c-0.506,1.521-2.075,3.186-3.671,3.327c-1.568,0.137-2.516-0.576-2.724-1.787c-0.739,1.182-1.87,2.315-3.252,2.505
				c-2.677,0.369-3.785-2.828-1.933-6.273c1.809-3.362,3.884-4.833,5.322-5.032c1.238-0.17,1.959,0.6,2.075,1.613
				C105.342,19.291,105.595,18.702,105.84,18.247z M103.719,19.621c-0.934,0.049-2.748,2.013-3.937,4.523
				c-1.145,2.426-1.129,4.745-0.003,4.616c1.185-0.137,2.398-1.992,3.477-4.46C104.582,21.216,104.567,19.583,103.719,19.621z"/>
			<path stroke="#231F20" stroke-width="0.5" stroke-miterlimit="10" d="M115.972,16.693c0.972-0.001,2.081,1.137,1.592,2.576
				c-0.409,1.217-1.493,3.316-1.925,4.748c-0.491,1.598-0.11,2.785,0.917,2.59c1.171-0.213,2.289-2.108,3.073-4.062
				c0.104-0.251,0.306-0.279,0.485-0.093c0.25,0.256,0.294,0.856,0.02,1.659c-0.529,1.549-2.117,3.112-3.786,3.342
				c-2.447,0.337-3.297-1.181-2.848-3.537c0.517-2.655,2.58-5.734,2.026-5.87c-0.306-0.063-1.851,0.889-3.383,2.945
				c-1.415,1.882-2.256,4.53-3.077,7.122c-0.075,0.249-0.231,0.375-0.529,0.179c-0.665-0.436-0.983-1.263-0.744-2.614
				c0.297-1.703,1.898-5.589,3.3-8.234c0.152-0.311,0.387-0.316,0.604-0.083c0.542,0.584,0.663,1.464,0.506,2.436
				C113.286,18.381,115,16.695,115.972,16.693z"/>
			<path stroke="#231F20" stroke-width="0.5" stroke-miterlimit="10" d="M128.046,25.078c1.171-0.215,2.429-2.155,3.131-4.071
				c0.104-0.252,0.306-0.28,0.456-0.09c0.155,0.217,0.299,0.883,0.044,1.629c-0.533,1.524-2.083,3.135-3.679,3.276
				c-1.568,0.137-2.478-0.528-2.686-1.739c-0.745,1.156-1.876,2.289-3.229,2.475c-2.677,0.369-3.757-2.833-1.928-6.248
				c1.76-3.302,3.863-4.778,5.303-4.977c1.18-0.162,1.893,0.557,2.027,1.513c1.099-2.866,2.684-6.671,3.494-8.128
				c0.227-0.399,0.489-0.41,0.69-0.095c0.55,0.796,0.653,1.915-0.224,4.013c-1.001,2.406-3.033,7.037-4.003,9.965
				C126.924,24.204,127.076,25.263,128.046,25.078z M122.232,21.078c-1.174,2.43-1.104,4.714,0.021,4.585
				c1.156-0.133,2.449-1.867,3.399-4.398c1.178-3.089,1.331-4.771,0.492-4.683C125.249,16.681,123.426,18.593,122.232,21.078z"/>
			<path stroke="#231F20" stroke-width="0.5" stroke-miterlimit="10" d="M137.236,25.076c-1.019,3.674-2.35,8.103-4.597,9.258
				c-0.516,0.255-1.062,0.33-1.733-0.315c-0.709-0.694-1.439-1.516-1.125-3.115c0.466-2.437,2.646-4.32,5.323-5.717
				c0.186-0.632,0.363-1.317,0.573-1.978c-0.75,0.946-1.729,1.767-2.894,1.848c-2.099,0.131-2.479-1.742-2.109-3.533
				c0.35-1.735,1.321-4.48,2.794-7.057c0.182-0.315,0.475-0.328,0.72-0.099c0.833,0.73,0.846,1.836,0.042,3.502
				c-0.779,1.636-1.231,2.781-1.569,4.066c-0.359,1.341-0.147,2.236,0.524,2.196c1.136-0.078,2.291-1.924,3.374-4.369
				c0.91-2.076,1.749-4.564,2.53-6.018c0.202-0.371,0.395-0.45,0.689-0.28c0.482,0.408,0.903,1.485,0.38,2.901
				c-0.606,1.613-1.831,4.946-2.61,7.612c2.06-1.391,3.505-3.094,4.413-4.669c0.112-0.201,0.367-0.262,0.469-0.013
				c0.098,0.225,0.112,0.829-0.261,1.566C141.32,22.615,139.475,23.871,137.236,25.076z M131.331,33.063
				c0.459,0.438,2.336-2.695,3.47-6.728C131.392,28.783,130.703,32.49,131.331,33.063z"/>
			<path stroke="#231F20" stroke-width="0.5" stroke-miterlimit="10" d="M141.691,12.253c-0.179-0.002-0.267-0.174-0.195-0.448
				c0.444-1.353,1.649-4.288,2.46-5.402c0.312-0.412,0.56-0.341,0.724-0.073c0.285,0.46,0.128,1.09-0.108,1.598
				c-0.498,1.043-1.56,2.931-2.194,3.861C142.117,12.168,141.896,12.252,141.691,12.253z"/>
			<path stroke="#231F20" stroke-width="0.5" stroke-miterlimit="10" d="M145.226,14.14c-0.028-1.024,0.176-1.554,0.695-2.126
				c0.545-0.603,1.188-0.797,1.488-0.601c0.332,0.218,0.237,0.521-0.035,1.165c-0.089,0.17-0.148,0.336-0.232,0.533
				c0.205,2.398,1.098,4.332,1.316,6.122c0.115,1.012,0.1,2.123-0.83,2.883c1.817-0.91,2.761-2.623,3.241-4.112
				c0.095-0.304,0.396-0.267,0.547-0.075c0.154,0.215,0.241,0.89-0.111,1.756c-0.788,1.928-2.577,3.176-4.607,3.535
				c-1.66,0.282-3.338,0.117-4.592-1.345c-0.89-1.064-1.095-2.776-0.24-3.632c0.301-0.305,0.549-0.234,0.648,0.174
				c0.064,0.202,0.1,0.408,0.163,0.61C143.609,17.421,144.617,15.569,145.226,14.14z M143.176,20.382
				c0.688,1.434,1.704,2.376,2.609,1.988c1.262-0.544,0.136-4.528-0.334-6.573C144.852,17.276,144.03,18.84,143.176,20.382z"/>
		</g>
		<g>
			<path fill="#FFFFFF" d="M90.426,39.695c0,0.641-0.103,1.227-0.308,1.757s-0.495,0.979-0.869,1.348
				c-0.347,0.349-0.757,0.618-1.228,0.81c-0.472,0.191-0.971,0.286-1.497,0.286c-0.458,0-0.873-0.045-1.244-0.134
				c-0.371-0.09-0.749-0.229-1.133-0.418v3.311h-1.485V35.841h1.485v0.827c0.395-0.297,0.838-0.546,1.331-0.746
				c0.492-0.2,1.017-0.301,1.575-0.301c1.063,0,1.892,0.36,2.484,1.079C90.13,37.419,90.426,38.417,90.426,39.695z M88.894,39.73
				c0-0.952-0.182-1.664-0.545-2.136s-0.921-0.707-1.674-0.707c-0.427,0-0.855,0.082-1.287,0.247
				c-0.433,0.165-0.846,0.382-1.24,0.65v4.477c0.421,0.17,0.783,0.286,1.086,0.347c0.303,0.062,0.646,0.092,1.03,0.092
				c0.827,0,1.472-0.249,1.936-0.749C88.662,41.451,88.894,40.711,88.894,39.73z"/>
			<path fill="#FFFFFF" d="M100.125,39.929h-6.5c0,0.485,0.082,0.908,0.245,1.27c0.163,0.36,0.387,0.656,0.671,0.887
				c0.274,0.227,0.6,0.396,0.976,0.51c0.377,0.113,0.791,0.17,1.244,0.17c0.601,0,1.204-0.107,1.812-0.322
				c0.608-0.214,1.041-0.426,1.299-0.633h0.079v1.45c-0.5,0.188-1.011,0.346-1.532,0.474c-0.521,0.127-1.068,0.19-1.643,0.19
				c-1.464,0-2.606-0.354-3.428-1.064c-0.821-0.709-1.232-1.717-1.232-3.022c0-1.292,0.394-2.317,1.181-3.077
				c0.787-0.759,1.823-1.139,3.108-1.139c1.189,0,2.107,0.312,2.753,0.934c0.645,0.623,0.967,1.507,0.967,2.652V39.929z
				 M98.68,38.91c-0.005-0.698-0.201-1.237-0.588-1.62c-0.388-0.382-0.976-0.572-1.766-0.572c-0.795,0-1.429,0.21-1.899,0.629
				c-0.472,0.42-0.738,0.941-0.802,1.563H98.68z"/>
			<path fill="#FFFFFF" d="M106.957,43.67c-0.279,0.065-0.583,0.12-0.912,0.162c-0.329,0.043-0.623,0.063-0.881,0.063
				c-0.9,0-1.585-0.217-2.054-0.65s-0.702-1.129-0.702-2.086v-4.201h-1.004v-1.117h1.004v-2.27h1.484v2.27h3.064v1.117h-3.064v3.6
				c0,0.415,0.011,0.739,0.031,0.973c0.021,0.233,0.095,0.451,0.222,0.654c0.115,0.188,0.275,0.326,0.478,0.413
				c0.203,0.088,0.513,0.131,0.929,0.131c0.241,0,0.494-0.031,0.758-0.095c0.263-0.064,0.453-0.117,0.568-0.159h0.079V43.67z"/>
			<path fill="#FFFFFF" d="M120.739,41.463c0,0.722-0.333,1.313-0.999,1.775s-1.575,0.693-2.729,0.693
				c-0.653,0-1.252-0.07-1.797-0.209s-1.002-0.291-1.37-0.456v-1.492h0.079c0.468,0.315,0.989,0.566,1.563,0.753
				s1.124,0.279,1.65,0.279c0.653,0,1.164-0.094,1.532-0.283c0.369-0.188,0.553-0.485,0.553-0.891c0-0.312-0.1-0.547-0.3-0.707
				s-0.584-0.297-1.153-0.41c-0.21-0.043-0.485-0.092-0.825-0.148s-0.648-0.118-0.928-0.185c-0.774-0.184-1.323-0.453-1.647-0.81
				c-0.323-0.355-0.485-0.793-0.485-1.312c0-0.325,0.075-0.632,0.226-0.92c0.149-0.287,0.377-0.544,0.683-0.771
				c0.295-0.222,0.67-0.397,1.126-0.526c0.455-0.13,0.965-0.195,1.528-0.195c0.526,0,1.06,0.059,1.599,0.174
				c0.54,0.115,0.989,0.256,1.347,0.421v1.421h-0.078c-0.38-0.25-0.841-0.461-1.383-0.633s-1.074-0.258-1.596-0.258
				c-0.542,0-1,0.093-1.374,0.279s-0.561,0.463-0.561,0.831c0,0.325,0.113,0.57,0.34,0.735c0.221,0.165,0.579,0.3,1.074,0.403
				c0.273,0.057,0.58,0.113,0.92,0.17c0.34,0.056,0.622,0.108,0.849,0.155c0.69,0.142,1.222,0.384,1.596,0.729
				C120.553,40.426,120.739,40.888,120.739,41.463z"/>
			<path fill="#FFFFFF" d="M130.241,43.74h-1.484v-4.498c0-0.362-0.024-0.703-0.071-1.021c-0.048-0.318-0.135-0.567-0.261-0.746
				c-0.132-0.198-0.321-0.346-0.568-0.442c-0.248-0.097-0.569-0.145-0.964-0.145c-0.405,0-0.829,0.089-1.271,0.269
				c-0.442,0.179-0.866,0.408-1.271,0.686v5.898h-1.485V32.736h1.485v3.981c0.463-0.344,0.942-0.613,1.438-0.807
				c0.494-0.193,1.003-0.29,1.524-0.29c0.952,0,1.68,0.258,2.18,0.771s0.75,1.254,0.75,2.221V43.74z"/>
			<path fill="#FFFFFF" d="M140.619,39.794c0,1.287-0.369,2.304-1.106,3.048c-0.736,0.745-1.724,1.117-2.961,1.117
				c-1.248,0-2.239-0.372-2.974-1.117c-0.735-0.744-1.103-1.761-1.103-3.048s0.367-2.304,1.103-3.052
				c0.734-0.747,1.726-1.121,2.974-1.121c1.237,0,2.225,0.374,2.961,1.121C140.25,37.49,140.619,38.507,140.619,39.794z
				 M139.087,39.794c0-1.022-0.224-1.783-0.672-2.28c-0.447-0.498-1.068-0.746-1.863-0.746c-0.806,0-1.432,0.248-1.876,0.746
				c-0.445,0.497-0.668,1.258-0.668,2.28c0,0.99,0.224,1.741,0.672,2.253c0.447,0.511,1.071,0.767,1.872,0.767
				c0.789,0,1.409-0.253,1.859-0.76S139.087,40.794,139.087,39.794z"/>
			<path fill="#FFFFFF" d="M150.681,39.695c0,0.641-0.103,1.227-0.308,1.757s-0.495,0.979-0.869,1.348
				c-0.347,0.349-0.757,0.618-1.228,0.81c-0.472,0.191-0.971,0.286-1.497,0.286c-0.458,0-0.873-0.045-1.244-0.134
				c-0.371-0.09-0.749-0.229-1.133-0.418v3.311h-1.485V35.841h1.485v0.827c0.395-0.297,0.838-0.546,1.331-0.746
				c0.492-0.2,1.017-0.301,1.575-0.301c1.063,0,1.892,0.36,2.484,1.079C150.385,37.419,150.681,38.417,150.681,39.695z
				 M149.148,39.73c0-0.952-0.182-1.664-0.545-2.136s-0.921-0.707-1.674-0.707c-0.427,0-0.855,0.082-1.287,0.247
				c-0.433,0.165-0.846,0.382-1.24,0.65v4.477c0.421,0.17,0.783,0.286,1.086,0.347c0.303,0.062,0.646,0.092,1.03,0.092
				c0.827,0,1.472-0.249,1.936-0.749C148.917,41.451,149.148,40.711,149.148,39.73z"/>
		</g>
		
			<text transform="matrix(1 0 0 1 85.3281 33.1182)" display="none" stroke="#231F20" stroke-width="0.25" stroke-miterlimit="10" font-family="'Verdana'" font-size="10">pet shop</text>
		<g>
			<path stroke="#231F20" stroke-width="0.25" stroke-miterlimit="10" d="M91.257,40.618c0,0.641-0.103,1.227-0.308,1.757
				s-0.495,0.979-0.869,1.348c-0.347,0.349-0.757,0.618-1.228,0.81c-0.472,0.191-0.971,0.286-1.497,0.286
				c-0.458,0-0.873-0.045-1.244-0.134c-0.371-0.09-0.749-0.229-1.133-0.418v3.311h-1.485V36.764h1.485v0.827
				c0.395-0.297,0.838-0.546,1.331-0.746c0.492-0.2,1.017-0.301,1.575-0.301c1.063,0,1.892,0.36,2.484,1.079
				C90.961,38.342,91.257,39.34,91.257,40.618z M89.725,40.653c0-0.952-0.182-1.664-0.545-2.136s-0.921-0.707-1.674-0.707
				c-0.427,0-0.855,0.082-1.287,0.247c-0.433,0.165-0.846,0.382-1.24,0.65v4.477c0.421,0.17,0.783,0.286,1.086,0.347
				c0.303,0.062,0.646,0.092,1.03,0.092c0.827,0,1.472-0.249,1.936-0.749C89.493,42.374,89.725,41.634,89.725,40.653z"/>
			<path stroke="#231F20" stroke-width="0.25" stroke-miterlimit="10" d="M100.956,40.852h-6.5c0,0.485,0.082,0.908,0.245,1.27
				c0.163,0.36,0.387,0.656,0.671,0.887c0.274,0.227,0.6,0.396,0.976,0.51c0.377,0.113,0.791,0.17,1.244,0.17
				c0.601,0,1.204-0.107,1.812-0.322c0.608-0.214,1.041-0.426,1.299-0.633h0.079v1.45c-0.5,0.188-1.011,0.346-1.532,0.474
				c-0.521,0.127-1.068,0.19-1.643,0.19c-1.464,0-2.606-0.354-3.428-1.064c-0.821-0.709-1.232-1.717-1.232-3.022
				c0-1.292,0.394-2.317,1.181-3.077c0.787-0.759,1.823-1.139,3.108-1.139c1.189,0,2.107,0.312,2.753,0.934
				c0.645,0.623,0.967,1.507,0.967,2.652V40.852z M99.511,39.833c-0.005-0.698-0.201-1.237-0.588-1.62
				c-0.388-0.382-0.976-0.572-1.766-0.572c-0.795,0-1.429,0.21-1.899,0.629c-0.472,0.42-0.738,0.941-0.802,1.563H99.511z"/>
			<path stroke="#231F20" stroke-width="0.25" stroke-miterlimit="10" d="M107.788,44.593c-0.279,0.065-0.583,0.12-0.912,0.162
				c-0.329,0.043-0.623,0.063-0.881,0.063c-0.9,0-1.585-0.217-2.054-0.65s-0.702-1.129-0.702-2.086v-4.201h-1.004v-1.117h1.004
				v-2.27h1.484v2.27h3.064v1.117h-3.064v3.6c0,0.415,0.011,0.739,0.031,0.973c0.021,0.233,0.095,0.451,0.222,0.654
				c0.115,0.188,0.275,0.326,0.478,0.413c0.203,0.088,0.513,0.131,0.929,0.131c0.241,0,0.494-0.031,0.758-0.095
				c0.263-0.064,0.453-0.117,0.568-0.159h0.079V44.593z"/>
			<path stroke="#231F20" stroke-width="0.25" stroke-miterlimit="10" d="M121.57,42.386c0,0.722-0.333,1.313-0.999,1.775
				s-1.575,0.693-2.729,0.693c-0.653,0-1.252-0.07-1.797-0.209s-1.002-0.291-1.37-0.456v-1.492h0.079
				c0.468,0.315,0.989,0.566,1.563,0.753s1.124,0.279,1.65,0.279c0.653,0,1.164-0.094,1.532-0.283
				c0.369-0.188,0.553-0.485,0.553-0.891c0-0.312-0.1-0.547-0.3-0.707s-0.584-0.297-1.153-0.41c-0.21-0.043-0.485-0.092-0.825-0.148
				s-0.648-0.118-0.928-0.185c-0.774-0.184-1.323-0.453-1.647-0.81c-0.323-0.355-0.485-0.793-0.485-1.312
				c0-0.325,0.075-0.632,0.226-0.92c0.149-0.287,0.377-0.544,0.683-0.771c0.295-0.222,0.67-0.397,1.126-0.526
				c0.455-0.13,0.965-0.195,1.528-0.195c0.526,0,1.06,0.059,1.599,0.174c0.54,0.115,0.989,0.256,1.347,0.421v1.421h-0.078
				c-0.38-0.25-0.841-0.461-1.383-0.633s-1.074-0.258-1.596-0.258c-0.542,0-1,0.093-1.374,0.279s-0.561,0.463-0.561,0.831
				c0,0.325,0.113,0.57,0.34,0.735c0.221,0.165,0.579,0.3,1.074,0.403c0.273,0.057,0.58,0.113,0.92,0.17
				c0.34,0.056,0.622,0.108,0.849,0.155c0.69,0.142,1.222,0.384,1.596,0.729C121.384,41.349,121.57,41.811,121.57,42.386z"/>
			<path stroke="#231F20" stroke-width="0.25" stroke-miterlimit="10" d="M131.072,44.663h-1.484v-4.498
				c0-0.362-0.024-0.703-0.071-1.021c-0.048-0.318-0.135-0.567-0.261-0.746c-0.132-0.198-0.321-0.346-0.568-0.442
				c-0.248-0.097-0.569-0.145-0.964-0.145c-0.405,0-0.829,0.089-1.271,0.269c-0.442,0.179-0.866,0.408-1.271,0.686v5.898h-1.485
				V33.659h1.485v3.981c0.463-0.344,0.942-0.613,1.438-0.807c0.494-0.193,1.003-0.29,1.524-0.29c0.952,0,1.68,0.258,2.18,0.771
				s0.75,1.254,0.75,2.221V44.663z"/>
			<path stroke="#231F20" stroke-width="0.25" stroke-miterlimit="10" d="M141.45,40.717c0,1.287-0.369,2.304-1.106,3.048
				c-0.736,0.745-1.724,1.117-2.961,1.117c-1.248,0-2.239-0.372-2.974-1.117c-0.735-0.744-1.103-1.761-1.103-3.048
				s0.367-2.304,1.103-3.052c0.734-0.747,1.726-1.121,2.974-1.121c1.237,0,2.225,0.374,2.961,1.121
				C141.081,38.413,141.45,39.43,141.45,40.717z M139.918,40.717c0-1.022-0.224-1.783-0.672-2.28
				c-0.447-0.498-1.068-0.746-1.863-0.746c-0.806,0-1.432,0.248-1.876,0.746c-0.445,0.497-0.668,1.258-0.668,2.28
				c0,0.99,0.224,1.741,0.672,2.253c0.447,0.511,1.071,0.767,1.872,0.767c0.789,0,1.409-0.253,1.859-0.76
				S139.918,41.717,139.918,40.717z"/>
			<path stroke="#231F20" stroke-width="0.25" stroke-miterlimit="10" d="M151.512,40.618c0,0.641-0.103,1.227-0.308,1.757
				s-0.495,0.979-0.869,1.348c-0.347,0.349-0.757,0.618-1.228,0.81c-0.472,0.191-0.971,0.286-1.497,0.286
				c-0.458,0-0.873-0.045-1.244-0.134c-0.371-0.09-0.749-0.229-1.133-0.418v3.311h-1.485V36.764h1.485v0.827
				c0.395-0.297,0.838-0.546,1.331-0.746c0.492-0.2,1.017-0.301,1.575-0.301c1.063,0,1.892,0.36,2.484,1.079
				C151.216,38.342,151.512,39.34,151.512,40.618z M149.979,40.653c0-0.952-0.182-1.664-0.545-2.136s-0.921-0.707-1.674-0.707
				c-0.427,0-0.855,0.082-1.287,0.247c-0.433,0.165-0.846,0.382-1.24,0.65v4.477c0.421,0.17,0.783,0.286,1.086,0.347
				c0.303,0.062,0.646,0.092,1.03,0.092c0.827,0,1.472-0.249,1.936-0.749C149.748,42.374,149.979,41.634,149.979,40.653z"/>
		</g>
		<g>
			<path fill="#FFFFFF" d="M89.29,39.695c0,0.641-0.103,1.227-0.308,1.757s-0.495,0.979-0.869,1.348
				c-0.347,0.349-0.757,0.618-1.228,0.81c-0.472,0.191-0.971,0.286-1.497,0.286c-0.458,0-0.873-0.045-1.244-0.134
				c-0.371-0.09-0.749-0.229-1.133-0.418v3.311h-1.485V35.841h1.485v0.827c0.395-0.297,0.838-0.546,1.331-0.746
				c0.492-0.2,1.017-0.301,1.575-0.301c1.063,0,1.892,0.36,2.484,1.079C88.994,37.419,89.29,38.417,89.29,39.695z M87.758,39.73
				c0-0.952-0.182-1.664-0.545-2.136s-0.921-0.707-1.674-0.707c-0.427,0-0.855,0.082-1.287,0.247
				c-0.433,0.165-0.846,0.382-1.24,0.65v4.477c0.421,0.17,0.783,0.286,1.086,0.347c0.303,0.062,0.646,0.092,1.03,0.092
				c0.827,0,1.472-0.249,1.936-0.749C87.526,41.451,87.758,40.711,87.758,39.73z"/>
			<path fill="#FFFFFF" d="M98.989,39.929h-6.5c0,0.485,0.082,0.908,0.245,1.27c0.163,0.36,0.387,0.656,0.671,0.887
				c0.274,0.227,0.6,0.396,0.976,0.51c0.377,0.113,0.791,0.17,1.244,0.17c0.601,0,1.204-0.107,1.812-0.322
				c0.608-0.214,1.041-0.426,1.299-0.633h0.079v1.45c-0.5,0.188-1.011,0.346-1.532,0.474c-0.521,0.127-1.068,0.19-1.643,0.19
				c-1.464,0-2.606-0.354-3.428-1.064c-0.821-0.709-1.232-1.717-1.232-3.022c0-1.292,0.394-2.317,1.181-3.077
				c0.787-0.759,1.823-1.139,3.108-1.139c1.189,0,2.107,0.312,2.753,0.934c0.645,0.623,0.967,1.507,0.967,2.652V39.929z
				 M97.544,38.91c-0.005-0.698-0.201-1.237-0.588-1.62c-0.388-0.382-0.976-0.572-1.766-0.572c-0.795,0-1.429,0.21-1.899,0.629
				c-0.472,0.42-0.738,0.941-0.802,1.563H97.544z"/>
			<path fill="#FFFFFF" d="M105.821,43.67c-0.279,0.065-0.583,0.12-0.912,0.162c-0.329,0.043-0.623,0.063-0.881,0.063
				c-0.9,0-1.585-0.217-2.054-0.65s-0.702-1.129-0.702-2.086v-4.201h-1.004v-1.117h1.004v-2.27h1.484v2.27h3.064v1.117h-3.064v3.6
				c0,0.415,0.011,0.739,0.031,0.973c0.021,0.233,0.095,0.451,0.222,0.654c0.115,0.188,0.275,0.326,0.478,0.413
				c0.203,0.088,0.513,0.131,0.929,0.131c0.241,0,0.494-0.031,0.758-0.095c0.263-0.064,0.453-0.117,0.568-0.159h0.079V43.67z"/>
			<path fill="#FFFFFF" d="M119.604,41.463c0,0.722-0.333,1.313-0.999,1.775s-1.575,0.693-2.729,0.693
				c-0.653,0-1.252-0.07-1.797-0.209s-1.002-0.291-1.37-0.456v-1.492h0.079c0.468,0.315,0.989,0.566,1.563,0.753
				s1.124,0.279,1.65,0.279c0.653,0,1.164-0.094,1.532-0.283c0.369-0.188,0.553-0.485,0.553-0.891c0-0.312-0.1-0.547-0.3-0.707
				s-0.584-0.297-1.153-0.41c-0.21-0.043-0.485-0.092-0.825-0.148s-0.648-0.118-0.928-0.185c-0.774-0.184-1.323-0.453-1.647-0.81
				c-0.323-0.355-0.485-0.793-0.485-1.312c0-0.325,0.075-0.632,0.226-0.92c0.149-0.287,0.377-0.544,0.683-0.771
				c0.295-0.222,0.67-0.397,1.126-0.526c0.455-0.13,0.965-0.195,1.528-0.195c0.526,0,1.06,0.059,1.599,0.174
				c0.54,0.115,0.989,0.256,1.347,0.421v1.421h-0.078c-0.38-0.25-0.841-0.461-1.383-0.633s-1.074-0.258-1.596-0.258
				c-0.542,0-1,0.093-1.374,0.279s-0.561,0.463-0.561,0.831c0,0.325,0.113,0.57,0.34,0.735c0.221,0.165,0.579,0.3,1.074,0.403
				c0.273,0.057,0.58,0.113,0.92,0.17c0.34,0.056,0.622,0.108,0.849,0.155c0.69,0.142,1.222,0.384,1.596,0.729
				C119.417,40.426,119.604,40.888,119.604,41.463z"/>
			<path fill="#FFFFFF" d="M129.105,43.74h-1.484v-4.498c0-0.362-0.024-0.703-0.071-1.021c-0.048-0.318-0.135-0.567-0.261-0.746
				c-0.132-0.198-0.321-0.346-0.568-0.442c-0.248-0.097-0.569-0.145-0.964-0.145c-0.405,0-0.829,0.089-1.271,0.269
				c-0.442,0.179-0.866,0.408-1.271,0.686v5.898h-1.485V32.736h1.485v3.981c0.463-0.344,0.942-0.613,1.438-0.807
				c0.494-0.193,1.003-0.29,1.524-0.29c0.952,0,1.68,0.258,2.18,0.771s0.75,1.254,0.75,2.221V43.74z"/>
			<path fill="#FFFFFF" d="M139.483,39.794c0,1.287-0.369,2.304-1.106,3.048c-0.736,0.745-1.724,1.117-2.961,1.117
				c-1.248,0-2.239-0.372-2.974-1.117c-0.735-0.744-1.103-1.761-1.103-3.048s0.367-2.304,1.103-3.052
				c0.734-0.747,1.726-1.121,2.974-1.121c1.237,0,2.225,0.374,2.961,1.121C139.114,37.49,139.483,38.507,139.483,39.794z
				 M137.951,39.794c0-1.022-0.224-1.783-0.672-2.28c-0.447-0.498-1.068-0.746-1.863-0.746c-0.806,0-1.432,0.248-1.876,0.746
				c-0.445,0.497-0.668,1.258-0.668,2.28c0,0.99,0.224,1.741,0.672,2.253c0.447,0.511,1.071,0.767,1.872,0.767
				c0.789,0,1.409-0.253,1.859-0.76S137.951,40.794,137.951,39.794z"/>
			<path fill="#FFFFFF" d="M149.545,39.695c0,0.641-0.103,1.227-0.308,1.757s-0.495,0.979-0.869,1.348
				c-0.347,0.349-0.757,0.618-1.228,0.81c-0.472,0.191-0.971,0.286-1.497,0.286c-0.458,0-0.873-0.045-1.244-0.134
				c-0.371-0.09-0.749-0.229-1.133-0.418v3.311h-1.485V35.841h1.485v0.827c0.395-0.297,0.838-0.546,1.331-0.746
				c0.492-0.2,1.017-0.301,1.575-0.301c1.063,0,1.892,0.36,2.484,1.079C149.249,37.419,149.545,38.417,149.545,39.695z
				 M148.013,39.73c0-0.952-0.182-1.664-0.545-2.136s-0.921-0.707-1.674-0.707c-0.427,0-0.855,0.082-1.287,0.247
				c-0.433,0.165-0.846,0.382-1.24,0.65v4.477c0.421,0.17,0.783,0.286,1.086,0.347c0.303,0.062,0.646,0.092,1.03,0.092
				c0.827,0,1.472-0.249,1.936-0.749C147.781,41.451,148.013,40.711,148.013,39.73z"/>
		</g>
		<g>
			<path stroke="#231F20" stroke-width="0.25" stroke-miterlimit="10" d="M91.257,40.618c0,0.641-0.103,1.227-0.308,1.757
				s-0.495,0.979-0.869,1.348c-0.347,0.349-0.757,0.618-1.228,0.81c-0.472,0.191-0.971,0.286-1.497,0.286
				c-0.458,0-0.873-0.045-1.244-0.134c-0.371-0.09-0.749-0.229-1.133-0.418v3.311h-1.485V36.764h1.485v0.827
				c0.395-0.297,0.838-0.546,1.331-0.746c0.492-0.2,1.017-0.301,1.575-0.301c1.063,0,1.892,0.36,2.484,1.079
				C90.961,38.342,91.257,39.34,91.257,40.618z M89.725,40.653c0-0.952-0.182-1.664-0.545-2.136s-0.921-0.707-1.674-0.707
				c-0.427,0-0.855,0.082-1.287,0.247c-0.433,0.165-0.846,0.382-1.24,0.65v4.477c0.421,0.17,0.783,0.286,1.086,0.347
				c0.303,0.062,0.646,0.092,1.03,0.092c0.827,0,1.472-0.249,1.936-0.749C89.493,42.374,89.725,41.634,89.725,40.653z"/>
			<path stroke="#231F20" stroke-width="0.25" stroke-miterlimit="10" d="M100.956,40.852h-6.5c0,0.485,0.082,0.908,0.245,1.27
				c0.163,0.36,0.387,0.656,0.671,0.887c0.274,0.227,0.6,0.396,0.976,0.51c0.377,0.113,0.791,0.17,1.244,0.17
				c0.601,0,1.204-0.107,1.812-0.322c0.608-0.214,1.041-0.426,1.299-0.633h0.079v1.45c-0.5,0.188-1.011,0.346-1.532,0.474
				c-0.521,0.127-1.068,0.19-1.643,0.19c-1.464,0-2.606-0.354-3.428-1.064c-0.821-0.709-1.232-1.717-1.232-3.022
				c0-1.292,0.394-2.317,1.181-3.077c0.787-0.759,1.823-1.139,3.108-1.139c1.189,0,2.107,0.312,2.753,0.934
				c0.645,0.623,0.967,1.507,0.967,2.652V40.852z M99.511,39.833c-0.005-0.698-0.201-1.237-0.588-1.62
				c-0.388-0.382-0.976-0.572-1.766-0.572c-0.795,0-1.429,0.21-1.899,0.629c-0.472,0.42-0.738,0.941-0.802,1.563H99.511z"/>
			<path stroke="#231F20" stroke-width="0.25" stroke-miterlimit="10" d="M107.788,44.593c-0.279,0.065-0.583,0.12-0.912,0.162
				c-0.329,0.043-0.623,0.063-0.881,0.063c-0.9,0-1.585-0.217-2.054-0.65s-0.702-1.129-0.702-2.086v-4.201h-1.004v-1.117h1.004
				v-2.27h1.484v2.27h3.064v1.117h-3.064v3.6c0,0.415,0.011,0.739,0.031,0.973c0.021,0.233,0.095,0.451,0.222,0.654
				c0.115,0.188,0.275,0.326,0.478,0.413c0.203,0.088,0.513,0.131,0.929,0.131c0.241,0,0.494-0.031,0.758-0.095
				c0.263-0.064,0.453-0.117,0.568-0.159h0.079V44.593z"/>
			<path stroke="#231F20" stroke-width="0.25" stroke-miterlimit="10" d="M121.57,42.386c0,0.722-0.333,1.313-0.999,1.775
				s-1.575,0.693-2.729,0.693c-0.653,0-1.252-0.07-1.797-0.209s-1.002-0.291-1.37-0.456v-1.492h0.079
				c0.468,0.315,0.989,0.566,1.563,0.753s1.124,0.279,1.65,0.279c0.653,0,1.164-0.094,1.532-0.283
				c0.369-0.188,0.553-0.485,0.553-0.891c0-0.312-0.1-0.547-0.3-0.707s-0.584-0.297-1.153-0.41c-0.21-0.043-0.485-0.092-0.825-0.148
				s-0.648-0.118-0.928-0.185c-0.774-0.184-1.323-0.453-1.647-0.81c-0.323-0.355-0.485-0.793-0.485-1.312
				c0-0.325,0.075-0.632,0.226-0.92c0.149-0.287,0.377-0.544,0.683-0.771c0.295-0.222,0.67-0.397,1.126-0.526
				c0.455-0.13,0.965-0.195,1.528-0.195c0.526,0,1.06,0.059,1.599,0.174c0.54,0.115,0.989,0.256,1.347,0.421v1.421h-0.078
				c-0.38-0.25-0.841-0.461-1.383-0.633s-1.074-0.258-1.596-0.258c-0.542,0-1,0.093-1.374,0.279s-0.561,0.463-0.561,0.831
				c0,0.325,0.113,0.57,0.34,0.735c0.221,0.165,0.579,0.3,1.074,0.403c0.273,0.057,0.58,0.113,0.92,0.17
				c0.34,0.056,0.622,0.108,0.849,0.155c0.69,0.142,1.222,0.384,1.596,0.729C121.384,41.349,121.57,41.811,121.57,42.386z"/>
			<path stroke="#231F20" stroke-width="0.25" stroke-miterlimit="10" d="M131.072,44.663h-1.484v-4.498
				c0-0.362-0.024-0.703-0.071-1.021c-0.048-0.318-0.135-0.567-0.261-0.746c-0.132-0.198-0.321-0.346-0.568-0.442
				c-0.248-0.097-0.569-0.145-0.964-0.145c-0.405,0-0.829,0.089-1.271,0.269c-0.442,0.179-0.866,0.408-1.271,0.686v5.898h-1.485
				V33.659h1.485v3.981c0.463-0.344,0.942-0.613,1.438-0.807c0.494-0.193,1.003-0.29,1.524-0.29c0.952,0,1.68,0.258,2.18,0.771
				s0.75,1.254,0.75,2.221V44.663z"/>
			<path stroke="#231F20" stroke-width="0.25" stroke-miterlimit="10" d="M141.45,40.717c0,1.287-0.369,2.304-1.106,3.048
				c-0.736,0.745-1.724,1.117-2.961,1.117c-1.248,0-2.239-0.372-2.974-1.117c-0.735-0.744-1.103-1.761-1.103-3.048
				s0.367-2.304,1.103-3.052c0.734-0.747,1.726-1.121,2.974-1.121c1.237,0,2.225,0.374,2.961,1.121
				C141.081,38.413,141.45,39.43,141.45,40.717z M139.918,40.717c0-1.022-0.224-1.783-0.672-2.28
				c-0.447-0.498-1.068-0.746-1.863-0.746c-0.806,0-1.432,0.248-1.876,0.746c-0.445,0.497-0.668,1.258-0.668,2.28
				c0,0.99,0.224,1.741,0.672,2.253c0.447,0.511,1.071,0.767,1.872,0.767c0.789,0,1.409-0.253,1.859-0.76
				S139.918,41.717,139.918,40.717z"/>
			<path stroke="#231F20" stroke-width="0.25" stroke-miterlimit="10" d="M151.512,40.618c0,0.641-0.103,1.227-0.308,1.757
				s-0.495,0.979-0.869,1.348c-0.347,0.349-0.757,0.618-1.228,0.81c-0.472,0.191-0.971,0.286-1.497,0.286
				c-0.458,0-0.873-0.045-1.244-0.134c-0.371-0.09-0.749-0.229-1.133-0.418v3.311h-1.485V36.764h1.485v0.827
				c0.395-0.297,0.838-0.546,1.331-0.746c0.492-0.2,1.017-0.301,1.575-0.301c1.063,0,1.892,0.36,2.484,1.079
				C151.216,38.342,151.512,39.34,151.512,40.618z M149.979,40.653c0-0.952-0.182-1.664-0.545-2.136s-0.921-0.707-1.674-0.707
				c-0.427,0-0.855,0.082-1.287,0.247c-0.433,0.165-0.846,0.382-1.24,0.65v4.477c0.421,0.17,0.783,0.286,1.086,0.347
				c0.303,0.062,0.646,0.092,1.03,0.092c0.827,0,1.472-0.249,1.936-0.749C149.748,42.374,149.979,41.634,149.979,40.653z"/>
		</g>
	</g>
	<g id="Layer_9">
	</g>
	<path display="none" fill="none" stroke="#000000" stroke-width="2" stroke-miterlimit="10" d="M22.188,41.375
		c0,0-5.625-8.25-8.812-10.5s-1.125-0.688-3.188-2.25s-1.562-5.438-1.562-5.438l3.625-6.875c0,0,2.625-1.375,5.812,0
		s7.625-0.611,7.625-0.611l5-2.826c0.404-1.44,0.734-3.192,1.445-4.503c0.999-1.84,2.019,0.33,2.561,1.258
		c0.838,1.435,1.77,2.816,2.655,4.223c1.287,2.045,2.57,4.091,3.839,6.147l1.625,4.562l0.688,3.312v4.438l-0.625,5
		c0,0-1.912,4.125-3.081,4.062l-6.169-0.312c0,0-6.083-1.75-2.042-12.562s5.333-10.583,6.5-11.667s9.333-4.167,9.333-4.167
		s5.668-1.249,7.918,2.418c1.051,1.712,1.929,3.57,2.664,5.439c0.463,1.175,0.601,3.169,1.586,4.019
		c1.321,1.139,3.945,1.067,5.587,1.478c2.146,0.537,4.368,1.338,6.579,1.563c1.624,0.165-1.083,7.417-1.083,7.417
		s-1.25,7.083-21,12.083"/>
	<g id="Layer_5">
		
			<ellipse transform="matrix(0.9646 0.2638 -0.2638 0.9646 7.8661 -12.666)" fill="#231F20" cx="51.096" cy="22.957" rx="3.809" ry="4.238"/>
	</g>
	
		<ellipse id="XMLID_1_" transform="matrix(0.9693 0.246 -0.246 0.9693 7.2797 -11.9451)" display="none" stroke="#000000" stroke-miterlimit="10" cx="51.457" cy="23.168" rx="3.708" ry="4.25"/>
	<g id="Layer_6" display="none">
	</g>
	<g id="Layer_7" display="none">
	</g>
</g>
<g id="Layer_8">
	
		<ellipse transform="matrix(0.9853 0.171 -0.171 0.9853 4.5412 -8.6084)" fill="#FDF11E" cx="52.236" cy="22.054" rx="0.861" ry="1.196"/>
</g>
</svg>
